<svg xmlns="http://www.w3.org/2000/svg" width="512" height="512" viewBox="0 0 512 512" role="img" aria-label="รายจ่าย">
  <title>รายจ่าย</title>
  <defs>
    <filter id="softShadow" x="-20%" y="-20%" width="140%" height="140%">
      <feDropShadow dx="0" dy="12" stdDeviation="16" flood-color="#7a6a52" flood-opacity="0.18"/>
    </filter>
    <linearGradient id="cream" x1="0" y1="0" x2="1" y2="1">
      <stop offset="0%" stop-color="#fff8e8"/>
      <stop offset="100%" stop-color="#eadbbd"/>
    </linearGradient>
    <linearGradient id="sage" x1="0" y1="0" x2="1" y2="1">
      <stop offset="0%" stop-color="#9bab7a"/>
      <stop offset="100%" stop-color="#5f7350"/>
    </linearGradient>
    <linearGradient id="beige" x1="0" y1="0" x2="1" y2="1">
      <stop offset="0%" stop-color="#e8c79e"/>
      <stop offset="100%" stop-color="#b98555"/>
    </linearGradient>
    <linearGradient id="gold" x1="0" y1="0" x2="1" y2="1">
      <stop offset="0%" stop-color="#ffd88a"/>
      <stop offset="100%" stop-color="#d59a31"/>
    </linearGradient>
    <linearGradient id="terra" x1="0" y1="0" x2="1" y2="1">
      <stop offset="0%" stop-color="#d99a76"/>
      <stop offset="100%" stop-color="#a95f43"/>
    </linearGradient>
    <style>
      .stroke{stroke:#77664f;stroke-width:10;stroke-linecap:round;stroke-linejoin:round}
      .sage{fill:url(#sage)}
      .cream{fill:url(#cream)}
      .beige{fill:url(#beige)}
      .gold{fill:url(#gold)}
      .terra{fill:url(#terra)}
      .leaf{fill:#8fa466;stroke:#6d7f52;stroke-width:4}
      .line{fill:none;stroke:#d1a66e;stroke-width:8;stroke-linecap:round;stroke-dasharray:12 20}
    </style>
  </defs>
  <g filter="url(#softShadow)">
    <rect x="111" y="169" width="253" height="202" rx="32" class="beige"/>
    <path d="M139 203 h190 M139 338 h160" class="line"/>
    <rect x="184" y="112" width="154" height="86" rx="12" fill="#a7b88a"/>
    <rect x="222" y="100" width="154" height="88" rx="12" fill="#efe0bd"/>
    <circle cx="298" cy="145" r="29" fill="#9aa970"/>
    <circle cx="342" cy="310" r="70" fill="#f6e6c8"/>
    <circle cx="342" cy="310" r="52" class="terra"/>
    <path d="M342 281 V340 M316 314 l26 26 26-26" fill="none" stroke="#fff8ea" stroke-width="25" stroke-linecap="round" stroke-linejoin="round"/>
        <g transform="translate(111 317) scale(0.63)">
      <path d="M0 90 C30 55 55 25 98 0" fill="none" stroke="#6d7f52" stroke-width="8" stroke-linecap="round"/>
      <ellipse class="leaf" cx="24" cy="62" rx="18" ry="34" transform="rotate(-42 24 62)"/>
      <ellipse class="leaf" cx="52" cy="38" rx="17" ry="31" transform="rotate(-25 52 38)"/>
      <ellipse class="leaf" cx="78" cy="17" rx="16" ry="29" transform="rotate(-15 78 17)"/>
    </g>
  </g>
</svg>
