<svg xmlns="http://www.w3.org/2000/svg" width="512" height="512" viewBox="0 0 512 512" role="img" aria-label="งบประมาณ">
  <title>งบประมาณ</title>
  <defs>
    <filter id="softShadow" x="-20%" y="-20%" width="140%" height="140%">
      <feDropShadow dx="0" dy="12" stdDeviation="16" flood-color="#7a6a52" flood-opacity="0.18"/>
    </filter>
    <linearGradient id="cream" x1="0" y1="0" x2="1" y2="1">
      <stop offset="0%" stop-color="#fff8e8"/>
      <stop offset="100%" stop-color="#eadbbd"/>
    </linearGradient>
    <linearGradient id="sage" x1="0" y1="0" x2="1" y2="1">
      <stop offset="0%" stop-color="#9bab7a"/>
      <stop offset="100%" stop-color="#5f7350"/>
    </linearGradient>
    <linearGradient id="beige" x1="0" y1="0" x2="1" y2="1">
      <stop offset="0%" stop-color="#e8c79e"/>
      <stop offset="100%" stop-color="#b98555"/>
    </linearGradient>
    <linearGradient id="gold" x1="0" y1="0" x2="1" y2="1">
      <stop offset="0%" stop-color="#ffd88a"/>
      <stop offset="100%" stop-color="#d59a31"/>
    </linearGradient>
    <linearGradient id="terra" x1="0" y1="0" x2="1" y2="1">
      <stop offset="0%" stop-color="#d99a76"/>
      <stop offset="100%" stop-color="#a95f43"/>
    </linearGradient>
    <style>
      .stroke{stroke:#77664f;stroke-width:10;stroke-linecap:round;stroke-linejoin:round}
      .sage{fill:url(#sage)}
      .cream{fill:url(#cream)}
      .beige{fill:url(#beige)}
      .gold{fill:url(#gold)}
      .terra{fill:url(#terra)}
      .leaf{fill:#8fa466;stroke:#6d7f52;stroke-width:4}
      .line{fill:none;stroke:#d1a66e;stroke-width:8;stroke-linecap:round;stroke-dasharray:12 20}
    </style>
  </defs>
  <g filter="url(#softShadow)">
    <circle cx="271" cy="135" r="54" class="gold" stroke="#c98e2f" stroke-width="8"/>
    <text x="271" y="156" text-anchor="middle" font-size="58" font-family="Georgia, serif" font-weight="700" fill="#fff6dd">฿</text>
    <rect x="122" y="157" width="248" height="206" rx="34" class="sage"/>
    <path d="M150 191 h190 M150 329 h170" class="line"/>
    <rect x="282" y="222" width="122" height="83" rx="28" class="sage" stroke="#5f7350" stroke-width="8"/>
    <circle cx="344" cy="264" r="13" fill="#f4dfb5"/>
    <g transform="translate(363 178)">
      <circle cx="30" cy="34" r="30" fill="#fff9ef"/>
      <path d="M7 20 l13-25 15 25 M54 20 l-15-25-14 25" fill="#fff0e6" stroke="#e7a999" stroke-width="5"/>
      <circle cx="22" cy="32" r="5" fill="#5d4a3f"/><circle cx="40" cy="32" r="5" fill="#5d4a3f"/>
      <path d="M26 45 q5 7 11 0" fill="none" stroke="#5d4a3f" stroke-width="5" stroke-linecap="round"/>
    </g>
        <g transform="translate(103 326) scale(0.7)">
      <path d="M0 90 C30 55 55 25 98 0" fill="none" stroke="#6d7f52" stroke-width="8" stroke-linecap="round"/>
      <ellipse class="leaf" cx="24" cy="62" rx="18" ry="34" transform="rotate(-42 24 62)"/>
      <ellipse class="leaf" cx="52" cy="38" rx="17" ry="31" transform="rotate(-25 52 38)"/>
      <ellipse class="leaf" cx="78" cy="17" rx="16" ry="29" transform="rotate(-15 78 17)"/>
    </g>
  </g>
</svg>
