<svg xmlns="http://www.w3.org/2000/svg" width="512" height="512" viewBox="0 0 512 512" role="img" aria-label="แมว">
  <title>แมว</title>
  <defs>
    <filter id="softShadow" x="-20%" y="-20%" width="140%" height="140%">
      <feDropShadow dx="0" dy="12" stdDeviation="16" flood-color="#7a6a52" flood-opacity="0.18"/>
    </filter>
    <linearGradient id="cream" x1="0" y1="0" x2="1" y2="1">
      <stop offset="0%" stop-color="#fff8e8"/>
      <stop offset="100%" stop-color="#eadbbd"/>
    </linearGradient>
    <linearGradient id="sage" x1="0" y1="0" x2="1" y2="1">
      <stop offset="0%" stop-color="#9bab7a"/>
      <stop offset="100%" stop-color="#5f7350"/>
    </linearGradient>
    <linearGradient id="beige" x1="0" y1="0" x2="1" y2="1">
      <stop offset="0%" stop-color="#e8c79e"/>
      <stop offset="100%" stop-color="#b98555"/>
    </linearGradient>
    <linearGradient id="gold" x1="0" y1="0" x2="1" y2="1">
      <stop offset="0%" stop-color="#ffd88a"/>
      <stop offset="100%" stop-color="#d59a31"/>
    </linearGradient>
    <linearGradient id="terra" x1="0" y1="0" x2="1" y2="1">
      <stop offset="0%" stop-color="#d99a76"/>
      <stop offset="100%" stop-color="#a95f43"/>
    </linearGradient>
    <style>
      .stroke{stroke:#77664f;stroke-width:10;stroke-linecap:round;stroke-linejoin:round}
      .sage{fill:url(#sage)}
      .cream{fill:url(#cream)}
      .beige{fill:url(#beige)}
      .gold{fill:url(#gold)}
      .terra{fill:url(#terra)}
      .leaf{fill:#8fa466;stroke:#6d7f52;stroke-width:4}
      .line{fill:none;stroke:#d1a66e;stroke-width:8;stroke-linecap:round;stroke-dasharray:12 20}
    </style>
  </defs>
  <g filter="url(#softShadow)">
    <ellipse cx="255" cy="298" rx="138" ry="104" fill="#f7ead2"/>
    <path d="M153 252 l37-78 45 78 M278 252 l45-78 37 78" fill="#f3d4be" stroke="#b78b68" stroke-width="8" stroke-linejoin="round"/>
    <circle cx="210" cy="280" r="10" fill="#5d4a3f"/>
    <circle cx="300" cy="280" r="10" fill="#5d4a3f"/>
    <path d="M253 296 q-10 14-22 0 M253 296 q10 14 22 0" fill="none" stroke="#5d4a3f" stroke-width="9" stroke-linecap="round"/>
    <ellipse cx="172" cy="305" rx="18" ry="12" fill="#f2b9a7" opacity=".75"/>
    <ellipse cx="336" cy="305" rx="18" ry="12" fill="#f2b9a7" opacity=".75"/>
    <path d="M132 348 q62 42 130 44 q74-1 129-44" fill="#d8b185" opacity=".45"/>
    <circle cx="257" cy="367" r="16" class="gold"/>
    <path d="M361 329 q55 54-24 80" fill="none" stroke="#b88556" stroke-width="32" stroke-linecap="round"/>
        <g transform="translate(84 332) scale(0.65)">
      <path d="M0 90 C30 55 55 25 98 0" fill="none" stroke="#6d7f52" stroke-width="8" stroke-linecap="round"/>
      <ellipse class="leaf" cx="24" cy="62" rx="18" ry="34" transform="rotate(-42 24 62)"/>
      <ellipse class="leaf" cx="52" cy="38" rx="17" ry="31" transform="rotate(-25 52 38)"/>
      <ellipse class="leaf" cx="78" cy="17" rx="16" ry="29" transform="rotate(-15 78 17)"/>
    </g>
  </g>
</svg>
