<svg xmlns="http://www.w3.org/2000/svg" width="512" height="512" viewBox="0 0 512 512" role="img" aria-label="หน้าแรก">
  <title>หน้าแรก</title>
  <defs>
    <filter id="softShadow" x="-20%" y="-20%" width="140%" height="140%">
      <feDropShadow dx="0" dy="12" stdDeviation="16" flood-color="#7a6a52" flood-opacity="0.18"/>
    </filter>
    <linearGradient id="cream" x1="0" y1="0" x2="1" y2="1">
      <stop offset="0%" stop-color="#fff8e8"/>
      <stop offset="100%" stop-color="#eadbbd"/>
    </linearGradient>
    <linearGradient id="sage" x1="0" y1="0" x2="1" y2="1">
      <stop offset="0%" stop-color="#9bab7a"/>
      <stop offset="100%" stop-color="#5f7350"/>
    </linearGradient>
    <linearGradient id="beige" x1="0" y1="0" x2="1" y2="1">
      <stop offset="0%" stop-color="#e8c79e"/>
      <stop offset="100%" stop-color="#b98555"/>
    </linearGradient>
    <linearGradient id="gold" x1="0" y1="0" x2="1" y2="1">
      <stop offset="0%" stop-color="#ffd88a"/>
      <stop offset="100%" stop-color="#d59a31"/>
    </linearGradient>
    <linearGradient id="terra" x1="0" y1="0" x2="1" y2="1">
      <stop offset="0%" stop-color="#d99a76"/>
      <stop offset="100%" stop-color="#a95f43"/>
    </linearGradient>
    <style>
      .stroke{stroke:#77664f;stroke-width:10;stroke-linecap:round;stroke-linejoin:round}
      .sage{fill:url(#sage)}
      .cream{fill:url(#cream)}
      .beige{fill:url(#beige)}
      .gold{fill:url(#gold)}
      .terra{fill:url(#terra)}
      .leaf{fill:#8fa466;stroke:#6d7f52;stroke-width:4}
      .line{fill:none;stroke:#d1a66e;stroke-width:8;stroke-linecap:round;stroke-dasharray:12 20}
    </style>
  </defs>
  <g filter="url(#softShadow)">
    <rect x="164" y="210" width="205" height="195" rx="28" class="cream"/>
    <path d="M126 238 L266 112 L407 238" fill="none" stroke="#708256" stroke-width="38" stroke-linecap="round" stroke-linejoin="round"/>
    <rect x="336" y="136" width="42" height="92" rx="15" class="beige"/>
    <circle cx="263" cy="223" r="34" fill="#f4dfb5" stroke="#d2aa70" stroke-width="8"/>
    <path d="M263 193 v60 M233 223 h60" stroke="#d2aa70" stroke-width="7" stroke-linecap="round"/>
    <rect x="291" y="285" width="58" height="58" rx="12" fill="#f5dfb7" stroke="#d2aa70" stroke-width="7"/>
    <path d="M320 285 v58 M291 314 h58" stroke="#d2aa70" stroke-width="5"/>
    <path d="M194 405 v-92 a38 38 0 0 1 76 0 v92" class="sage"/>
    <circle cx="253" cy="358" r="6" fill="#f6c567"/>
    <g>
      <circle cx="369" cy="120" r="28" fill="#fff9ef"/>
      <path d="M346 105 l14-28 17 27 M392 105 l-14-28-17 27" fill="#fff0e6" stroke="#e7a999" stroke-width="5"/>
      <circle cx="360" cy="118" r="5" fill="#5d4a3f"/><circle cx="379" cy="118" r="5" fill="#5d4a3f"/>
      <path d="M364 132 q6 8 12 0" fill="none" stroke="#5d4a3f" stroke-width="5" stroke-linecap="round"/>
    </g>
    <rect x="98" y="361" width="54" height="58" rx="12" class="beige"/>
    <path d="M125 360 C105 316 128 295 144 330 C160 293 184 315 160 360" class="leaf"/>
    <circle cx="339" cy="402" r="28" fill="#90a462"/><circle cx="371" cy="396" r="34" fill="#819457"/><circle cx="407" cy="409" r="27" fill="#90a462"/>
        <g transform="translate(388 330) scale(0.75)">
      <path d="M0 90 C30 55 55 25 98 0" fill="none" stroke="#6d7f52" stroke-width="8" stroke-linecap="round"/>
      <ellipse class="leaf" cx="24" cy="62" rx="18" ry="34" transform="rotate(-42 24 62)"/>
      <ellipse class="leaf" cx="52" cy="38" rx="17" ry="31" transform="rotate(-25 52 38)"/>
      <ellipse class="leaf" cx="78" cy="17" rx="16" ry="29" transform="rotate(-15 78 17)"/>
    </g>
  </g>
</svg>
