<svg xmlns="http://www.w3.org/2000/svg" width="512" height="512" viewBox="0 0 512 512" role="img" aria-label="นก">
  <title>นก</title>
  <defs>
    <filter id="softShadow" x="-20%" y="-20%" width="140%" height="140%">
      <feDropShadow dx="0" dy="12" stdDeviation="16" flood-color="#7a6a52" flood-opacity="0.18"/>
    </filter>
    <linearGradient id="cream" x1="0" y1="0" x2="1" y2="1">
      <stop offset="0%" stop-color="#fff8e8"/>
      <stop offset="100%" stop-color="#eadbbd"/>
    </linearGradient>
    <linearGradient id="sage" x1="0" y1="0" x2="1" y2="1">
      <stop offset="0%" stop-color="#9bab7a"/>
      <stop offset="100%" stop-color="#5f7350"/>
    </linearGradient>
    <linearGradient id="beige" x1="0" y1="0" x2="1" y2="1">
      <stop offset="0%" stop-color="#e8c79e"/>
      <stop offset="100%" stop-color="#b98555"/>
    </linearGradient>
    <linearGradient id="gold" x1="0" y1="0" x2="1" y2="1">
      <stop offset="0%" stop-color="#ffd88a"/>
      <stop offset="100%" stop-color="#d59a31"/>
    </linearGradient>
    <linearGradient id="terra" x1="0" y1="0" x2="1" y2="1">
      <stop offset="0%" stop-color="#d99a76"/>
      <stop offset="100%" stop-color="#a95f43"/>
    </linearGradient>
    <style>
      .stroke{stroke:#77664f;stroke-width:10;stroke-linecap:round;stroke-linejoin:round}
      .sage{fill:url(#sage)}
      .cream{fill:url(#cream)}
      .beige{fill:url(#beige)}
      .gold{fill:url(#gold)}
      .terra{fill:url(#terra)}
      .leaf{fill:#8fa466;stroke:#6d7f52;stroke-width:4}
      .line{fill:none;stroke:#d1a66e;stroke-width:8;stroke-linecap:round;stroke-dasharray:12 20}
    </style>
  </defs>
  <g filter="url(#softShadow)">
    <ellipse cx="246" cy="259" rx="112" ry="94" fill="#f7efd6"/>
    <ellipse cx="300" cy="264" rx="55" ry="69" class="sage"/>
    <path d="M141 247 q-30 12 0 28 q32-9 0-28z" class="beige"/>
    <circle cx="219" cy="232" r="11" fill="#5d4a3f"/>
    <ellipse cx="206" cy="273" rx="18" ry="12" fill="#f2b9a7" opacity=".7"/>
    <path d="M328 324 q54 20 87 2 q-43 45-102 37" class="sage"/>
    <path d="M197 350 q-37 42-95 53" fill="none" stroke="#8a643e" stroke-width="13" stroke-linecap="round"/>
    <path d="M226 356 q-3 28 20 43 M276 355 q12 30-9 48" fill="none" stroke="#8a643e" stroke-width="12" stroke-linecap="round"/>
        <g transform="translate(92 318) scale(0.82)">
      <path d="M0 90 C30 55 55 25 98 0" fill="none" stroke="#6d7f52" stroke-width="8" stroke-linecap="round"/>
      <ellipse class="leaf" cx="24" cy="62" rx="18" ry="34" transform="rotate(-42 24 62)"/>
      <ellipse class="leaf" cx="52" cy="38" rx="17" ry="31" transform="rotate(-25 52 38)"/>
      <ellipse class="leaf" cx="78" cy="17" rx="16" ry="29" transform="rotate(-15 78 17)"/>
    </g>
  </g>
</svg>
