<svg xmlns="http://www.w3.org/2000/svg" width="512" height="512" viewBox="0 0 512 512" role="img" aria-label="ซิงก์/สำรอง">
  <title>ซิงก์/สำรอง</title>
  <defs>
    <filter id="softShadow" x="-20%" y="-20%" width="140%" height="140%">
      <feDropShadow dx="0" dy="12" stdDeviation="16" flood-color="#7a6a52" flood-opacity="0.18"/>
    </filter>
    <linearGradient id="cream" x1="0" y1="0" x2="1" y2="1">
      <stop offset="0%" stop-color="#fff8e8"/>
      <stop offset="100%" stop-color="#eadbbd"/>
    </linearGradient>
    <linearGradient id="sage" x1="0" y1="0" x2="1" y2="1">
      <stop offset="0%" stop-color="#9bab7a"/>
      <stop offset="100%" stop-color="#5f7350"/>
    </linearGradient>
    <linearGradient id="beige" x1="0" y1="0" x2="1" y2="1">
      <stop offset="0%" stop-color="#e8c79e"/>
      <stop offset="100%" stop-color="#b98555"/>
    </linearGradient>
    <linearGradient id="gold" x1="0" y1="0" x2="1" y2="1">
      <stop offset="0%" stop-color="#ffd88a"/>
      <stop offset="100%" stop-color="#d59a31"/>
    </linearGradient>
    <linearGradient id="terra" x1="0" y1="0" x2="1" y2="1">
      <stop offset="0%" stop-color="#d99a76"/>
      <stop offset="100%" stop-color="#a95f43"/>
    </linearGradient>
    <style>
      .stroke{stroke:#77664f;stroke-width:10;stroke-linecap:round;stroke-linejoin:round}
      .sage{fill:url(#sage)}
      .cream{fill:url(#cream)}
      .beige{fill:url(#beige)}
      .gold{fill:url(#gold)}
      .terra{fill:url(#terra)}
      .leaf{fill:#8fa466;stroke:#6d7f52;stroke-width:4}
      .line{fill:none;stroke:#d1a66e;stroke-width:8;stroke-linecap:round;stroke-dasharray:12 20}
    </style>
  </defs>
  <g filter="url(#softShadow)">
    <path d="M155 354 h208 c55 0 92-37 92-84 0-44-31-76-74-81-18-54-66-89-124-89-69 0-124 48-135 114-42 7-73 43-73 86 0 31 17 54 47 54z" class="cream"/>
    <path d="M196 253 q57-64 128-16" fill="none" stroke="#6f8358" stroke-width="20" stroke-linecap="round"/>
    <path d="M321 214 l19 45-48-4" fill="none" stroke="#6f8358" stroke-width="20" stroke-linecap="round" stroke-linejoin="round"/>
    <path d="M316 305 q-60 50-125-5" fill="none" stroke="#6f8358" stroke-width="20" stroke-linecap="round"/>
    <path d="M190 331 l-17-45 47 8" fill="none" stroke="#6f8358" stroke-width="20" stroke-linecap="round" stroke-linejoin="round"/>
    <g transform="translate(318 121)">
      <ellipse cx="38" cy="40" rx="34" ry="31" fill="#f8edcf"/>
      <ellipse cx="56" cy="45" rx="16" ry="28" fill="#8ea266"/>
      <path d="M69 41 l15 8-15 8" fill="#b77b46"/>
      <circle cx="30" cy="35" r="5" fill="#5d4a3f"/>
    </g>
        <g transform="translate(93 324) scale(0.65)">
      <path d="M0 90 C30 55 55 25 98 0" fill="none" stroke="#6d7f52" stroke-width="8" stroke-linecap="round"/>
      <ellipse class="leaf" cx="24" cy="62" rx="18" ry="34" transform="rotate(-42 24 62)"/>
      <ellipse class="leaf" cx="52" cy="38" rx="17" ry="31" transform="rotate(-25 52 38)"/>
      <ellipse class="leaf" cx="78" cy="17" rx="16" ry="29" transform="rotate(-15 78 17)"/>
    </g>
  </g>
</svg>
