<svg xmlns="http://www.w3.org/2000/svg" width="512" height="512" viewBox="0 0 512 512" role="img" aria-label="กราฟ">
  <title>กราฟ</title>
  <defs>
    <filter id="softShadow" x="-20%" y="-20%" width="140%" height="140%">
      <feDropShadow dx="0" dy="12" stdDeviation="16" flood-color="#7a6a52" flood-opacity="0.18"/>
    </filter>
    <linearGradient id="cream" x1="0" y1="0" x2="1" y2="1">
      <stop offset="0%" stop-color="#fff8e8"/>
      <stop offset="100%" stop-color="#eadbbd"/>
    </linearGradient>
    <linearGradient id="sage" x1="0" y1="0" x2="1" y2="1">
      <stop offset="0%" stop-color="#9bab7a"/>
      <stop offset="100%" stop-color="#5f7350"/>
    </linearGradient>
    <linearGradient id="beige" x1="0" y1="0" x2="1" y2="1">
      <stop offset="0%" stop-color="#e8c79e"/>
      <stop offset="100%" stop-color="#b98555"/>
    </linearGradient>
    <linearGradient id="gold" x1="0" y1="0" x2="1" y2="1">
      <stop offset="0%" stop-color="#ffd88a"/>
      <stop offset="100%" stop-color="#d59a31"/>
    </linearGradient>
    <linearGradient id="terra" x1="0" y1="0" x2="1" y2="1">
      <stop offset="0%" stop-color="#d99a76"/>
      <stop offset="100%" stop-color="#a95f43"/>
    </linearGradient>
    <style>
      .stroke{stroke:#77664f;stroke-width:10;stroke-linecap:round;stroke-linejoin:round}
      .sage{fill:url(#sage)}
      .cream{fill:url(#cream)}
      .beige{fill:url(#beige)}
      .gold{fill:url(#gold)}
      .terra{fill:url(#terra)}
      .leaf{fill:#8fa466;stroke:#6d7f52;stroke-width:4}
      .line{fill:none;stroke:#d1a66e;stroke-width:8;stroke-linecap:round;stroke-dasharray:12 20}
    </style>
  </defs>
  <g filter="url(#softShadow)">
    <rect x="108" y="344" width="296" height="44" rx="20" class="beige"/>
    <rect x="142" y="245" width="70" height="98" rx="22" class="sage"/>
    <rect x="225" y="190" width="70" height="153" rx="22" class="cream"/>
    <rect x="309" y="127" width="70" height="216" rx="22" class="sage"/>
    <g transform="translate(325 78)">
      <ellipse cx="38" cy="40" rx="34" ry="31" fill="#f8edcf"/>
      <ellipse cx="56" cy="45" rx="16" ry="28" fill="#8ea266"/>
      <path d="M69 41 l15 8-15 8" fill="#b77b46"/>
      <circle cx="30" cy="35" r="5" fill="#5d4a3f"/>
      <path d="M40 69 q15 11 31 0" fill="none" stroke="#8a643e" stroke-width="6" stroke-linecap="round"/>
    </g>
        <g transform="translate(356 308) scale(0.7)">
      <path d="M0 90 C30 55 55 25 98 0" fill="none" stroke="#6d7f52" stroke-width="8" stroke-linecap="round"/>
      <ellipse class="leaf" cx="24" cy="62" rx="18" ry="34" transform="rotate(-42 24 62)"/>
      <ellipse class="leaf" cx="52" cy="38" rx="17" ry="31" transform="rotate(-25 52 38)"/>
      <ellipse class="leaf" cx="78" cy="17" rx="16" ry="29" transform="rotate(-15 78 17)"/>
    </g>
  </g>
</svg>
